<svg id="visual" viewBox="0 0 760 540" width="760" height="540" xmlns="http://www.w3.org/2000/svg" xmlns:xlink="http://www.w3.org/1999/xlink" version="1.1"><rect x="0" y="0" width="760" height="540" fill="#0b3556"></rect><path d="M0 314L18.2 326.7C36.3 339.3 72.7 364.7 108.8 378.8C145 393 181 396 217.2 385.7C253.3 375.3 289.7 351.7 325.8 339.7C362 327.7 398 327.3 434.2 339.3C470.3 351.3 506.7 375.7 542.8 376.7C579 377.7 615 355.3 651.2 346C687.3 336.7 723.7 340.3 741.8 342.2L760 344L760 541L741.8 541C723.7 541 687.3 541 651.2 541C615 541 579 541 542.8 541C506.7 541 470.3 541 434.2 541C398 541 362 541 325.8 541C289.7 541 253.3 541 217.2 541C181 541 145 541 108.8 541C72.7 541 36.3 541 18.2 541L0 541Z" fill="#fa7268"></path><path d="M0 399L18.2 400C36.3 401 72.7 403 108.8 405.7C145 408.3 181 411.7 217.2 404.8C253.3 398 289.7 381 325.8 378C362 375 398 386 434.2 395.8C470.3 405.7 506.7 414.3 542.8 407.5C579 400.7 615 378.3 651.2 376C687.3 373.7 723.7 391.3 741.8 400.2L760 409L760 541L741.8 541C723.7 541 687.3 541 651.2 541C615 541 579 541 542.8 541C506.7 541 470.3 541 434.2 541C398 541 362 541 325.8 541C289.7 541 253.3 541 217.2 541C181 541 145 541 108.8 541C72.7 541 36.3 541 18.2 541L0 541Z" fill="#ef5f67"></path><path d="M0 404L18.2 408.7C36.3 413.3 72.7 422.7 108.8 426.2C145 429.7 181 427.3 217.2 428.3C253.3 429.3 289.7 433.7 325.8 429.2C362 424.7 398 411.3 434.2 411.7C470.3 412 506.7 426 542.8 432.5C579 439 615 438 651.2 431.8C687.3 425.7 723.7 414.3 741.8 408.7L760 403L760 541L741.8 541C723.7 541 687.3 541 651.2 541C615 541 579 541 542.8 541C506.7 541 470.3 541 434.2 541C398 541 362 541 325.8 541C289.7 541 253.3 541 217.2 541C181 541 145 541 108.8 541C72.7 541 36.3 541 18.2 541L0 541Z" fill="#e34c67"></path><path d="M0 435L18.2 443.2C36.3 451.3 72.7 467.7 108.8 471.8C145 476 181 468 217.2 461.5C253.3 455 289.7 450 325.8 452.3C362 454.7 398 464.3 434.2 470.8C470.3 477.3 506.7 480.7 542.8 475.5C579 470.3 615 456.7 651.2 456.8C687.3 457 723.7 471 741.8 478L760 485L760 541L741.8 541C723.7 541 687.3 541 651.2 541C615 541 579 541 542.8 541C506.7 541 470.3 541 434.2 541C398 541 362 541 325.8 541C289.7 541 253.3 541 217.2 541C181 541 145 541 108.8 541C72.7 541 36.3 541 18.2 541L0 541Z" fill="#d53867"></path><path d="M0 514L18.2 508.8C36.3 503.7 72.7 493.3 108.8 491.3C145 489.3 181 495.7 217.2 496.3C253.3 497 289.7 492 325.8 489.7C362 487.3 398 487.7 434.2 492C470.3 496.3 506.7 504.7 542.8 504.8C579 505 615 497 651.2 490.5C687.3 484 723.7 479 741.8 476.5L760 474L760 541L741.8 541C723.7 541 687.3 541 651.2 541C615 541 579 541 542.8 541C506.7 541 470.3 541 434.2 541C398 541 362 541 325.8 541C289.7 541 253.3 541 217.2 541C181 541 145 541 108.8 541C72.7 541 36.3 541 18.2 541L0 541Z" fill="#c62368"></path></svg>